<svg width="20" height="20" viewBox="0 0 20 20" fill="none" xmlns="http://www.w3.org/2000/svg">
<path d="M17.2222 4.44446H12.2222V18.3333H18.3333V5.55557C18.3333 5.26088 18.2162 4.97827 18.0078 4.7699C17.7995 4.56152 17.5169 4.44446 17.2222 4.44446ZM14.4444 13.8889H13.3333V12.7778H14.4444V13.8889ZM14.4444 11.1111H13.3333V10H14.4444V11.1111ZM14.4444 8.33335H13.3333V7.22224H14.4444V8.33335ZM16.6666 13.8889H15.5555V12.7778H16.6666V13.8889ZM16.6666 11.1111H15.5555V10H16.6666V11.1111ZM16.6666 8.33335H15.5555V7.22224H16.6666V8.33335Z" fill="#696871"/>
<path d="M9.93328 1.66666H3.39995C3.08758 1.66666 2.78801 1.79074 2.56713 2.01162C2.34625 2.2325 2.22217 2.53207 2.22217 2.84443V18.3333H4.99995V16.6667H8.33328V18.3333H11.1111V2.84443C11.1111 2.53207 10.987 2.2325 10.7661 2.01162C10.5452 1.79074 10.2456 1.66666 9.93328 1.66666V1.66666ZM4.99995 13.8889H3.88883V12.7778H4.99995V13.8889ZM4.99995 11.1111H3.88883V9.99999H4.99995V11.1111ZM4.99995 8.33332H3.88883V7.22221H4.99995V8.33332ZM4.99995 5.55555H3.88883V4.44443H4.99995V5.55555ZM7.22217 13.8889H6.11106V12.7778H7.22217V13.8889ZM7.22217 11.1111H6.11106V9.99999H7.22217V11.1111ZM7.22217 8.33332H6.11106V7.22221H7.22217V8.33332ZM7.22217 5.55555H6.11106V4.44443H7.22217V5.55555ZM9.44439 13.8889H8.33328V12.7778H9.44439V13.8889ZM9.44439 11.1111H8.33328V9.99999H9.44439V11.1111ZM9.44439 8.33332H8.33328V7.22221H9.44439V8.33332ZM9.44439 5.55555H8.33328V4.44443H9.44439V5.55555Z" fill="#696871"/>
</svg>
